<svg xmlns="http://www.w3.org/2000/svg" width="225px" height="90px"><path d="M15,30 L15,30 L15,75 M30,15 L30,15 L30,75 M45,30 L45,30 L45,75 M60,15 L60,15 L60,75 M75,30 L75,30 L75,75 M90,15 L90,15 L90,75 M105,15 L105,15 L105,60 M120,15 L120,15 L120,75 M135,15 L135,15 L135,60 M150,15 L150,15 L150,75 M165,15 L165,15 L165,75 M180,15 L180,15 L180,45 L180,45 M180,75 L180,75 L180,60 M195,15 L195,15 L195,75 M210,15 L210,15 L210,45 M210,60 L210,60 L210,75 " style="stroke-width: 11px; stroke-linecap: square; stroke-linejoin: round; stroke: white; fill: none;"/></svg>
